<?xml version="1.0" encoding="utf-8"?>
<!-- Generator: Adobe Illustrator 27.6.1, SVG Export Plug-In . SVG Version: 6.00 Build 0)  -->
<svg version="1.1" id="Layer_1" xmlns="http://www.w3.org/2000/svg" xmlns:xlink="http://www.w3.org/1999/xlink" x="0px" y="0px"
	 viewBox="0 0 900 300" style="enable-background:new 0 0 900 300;" xml:space="preserve">
<style type="text/css">
	.st0{fill:#746F9B;}
	.st1{fill:#4F1271;}
	.st2{opacity:0.25;}
	.st3{fill:#250835;}
	.st4{opacity:0.1;fill:#FFFFFF;}
	.st5{opacity:0.35;}
</style>
<rect x="-1.9" class="st0" width="901.9" height="300"/>
<path d="M0.1,38.2"/>
<path class="st1" d="M902,137.2c0.1-1-0.4-1.5-1.2-2c-2.1-1.4-4.1-2.8-6.2-4.1c-8.4-5.3-17.2-9.7-26.5-13
	c-7.3-2.6-14.8-4.6-22.5-5.9c-3.2-0.5-6.5-1-9.7-1.4c-2.1-0.3-4.2-0.3-6.3-0.5c0.1-0.3,0.4-0.2,0.6-0.4c-9.3,0-18.7,0-28,0
	c-0.2,0.6-0.7,0.4-1.1,0.5c-4,0.3-8,0.6-12,1.1c-9.8,1.1-19.5,2.5-29.2,4.3c-21.4,3.9-42.5,9.1-63.5,14.9
	c-10.1,2.8-20.2,5.8-30.2,8.8c-18.8,5.7-37.4,11.8-56,18c-14.2,4.8-28.3,9.7-42.4,14.8c-18.6,6.6-37.1,13.3-55.5,20.3
	c-9.2,3.5-18.6,6.7-28,9.7c-14.2,4.5-28.6,8.4-43.2,11.7c-10.5,2.4-21,4.4-31.7,6c-7,1.1-14,1.9-21.1,2.6
	c-8.1,0.8-16.3,1.3-24.4,1.7c-5.2,0.2-10.4,0.2-15.6,0.3c-5.2,0.1-10.4,0-15.6-0.2c-4.1-0.1-8.2-0.4-12.3-0.6
	c-3.5-0.2-7-0.5-10.5-0.7c-2.7-0.1-5.3-0.5-8-0.7c-4.6-0.4-9.2-1-13.8-1.6c-9.5-1.2-18.9-2.6-28.4-4.3c-17.1-3.1-34-6.8-50.8-11.1
	c-14.9-3.8-29.6-7.9-44.3-12.4c-19.2-5.8-38.3-12-57.4-18.5c-13.8-4.7-27.6-9.5-41.3-14.4c-22-7.8-44-15.8-65.9-23.8
	c-0.6-0.2-1.1-0.4-1.8-0.5c0,54.8,0,109.5,0,164.3c300.1,0,600.2,0,900.3,0c0.7,0,1.5,0,2.2,0c0.7,0,1.1-0.3,1-1.1
	c0-0.4,0-0.8,0-1.2c0-53.2,0-106.4,0-159.7C902,137.8,902,137.5,902,137.2z"/>
<path class="st2" d="M269,188.4c-0.9-0.6-1.8-1.1-2.6-1.7C267.3,187.2,268.2,187.8,269,188.4z"/>
<g>
	<g>
		<path class="st3" d="M340,222.4c-12.5-1.9-22.8-22.4-29.4-35.1c-2.6-5.1-4-10.7-4-16.4v-11.4c0-4.9,2-9.7,5.6-13.1l6.8-6.6
			c2.4-2.3,5.7-3.6,9-3.6h3.9c3,0,5.8-1.1,8-3.1l1.4-1.3c2-1.8,3.1-4.4,3.1-7.2c0-1-0.2-2-0.5-3c-0.4-1-1.2-1.9-2.1-2.4l-0.2-0.1
			c-1.3-0.8-2.2-2.2-2.1-3.8c0.2-9.3-4.2-13.7-7.5-15.7c-2.3-1.4-3.8-3.7-4.1-6.3l-1.3-10c-0.1-0.4-0.3-0.7-0.7-0.8
			c-5.1-0.6-12,6.8-15.2,10.6c-0.2,0.3-0.5,0.5-0.8,0.8c-2.6-3.5-6.2-7.1-11-9.9c-0.6-0.4-1.5-0.1-1.8,0.6c-1.2,2.8-4,9.9-4.5,18.1
			c-2.7,2.1-5.1,4.2-7,6.1c-5.5,5.3-12.8,8.4-20.4,7.8c-5.5-0.4-9.8-2.5-12.8-4.5c-8.4-5.7-17.9-9.5-27.8-12
			c-14.8-3.7-28.9-5.3-39.3-5.9c-13.4-0.8-26.7,2.2-38.5,8.6c-5.7,3.1-12.3,7.2-19.5,12.6c-23.9,17.8-49.3,4.7-49.3,4.7
			c-18.2-7.2-16,4.7-16,4.7c18.8,30.9,74.3,4.3,74.3,4.3l-4.9,29.9c-0.7,4-2.2,7.8-4.4,11.2l-6.4,9.6c-1.9,2.8-4.2,5.2-6.6,7.6
			c-5.7,5.9-7.6,30.5-7.6,30.5c0,0,0.4,10,5.9,10.6c3.4,0.4,4.4-2.3,4.7-4.4c0.4-3.4,1.4-6.6,2.7-9.7c2.5-5.9,5.7-12.2,8.1-16.7
			c2.2-4.1,5.6-7.5,9.7-9.6l17.5-9.2c-2.5,11.9,4.9,26.9,4.9,26.9l18.6,26.3h15.3c5.3-0.6,5.7-3.5,5.7-3.5c1.8-8-12.1-6.1-12.1-6.1
			l-10.6-14.9c-1.4-4.9,0-9.2,0-9.2l13.3-21.1l45.2,10.6v15.1c0.9,7.9,4.5,8.3,7.2,7.3c1.8-0.6,3.1-2.2,3.8-4
			c3-8.4,15.4-19.1,15.4-19.1c21.1,3.1,54,33.1,63.6,42.2c1.8,1.7,4.1,2.6,6.6,2.6h13.3c0,0,5.3,0.8,5.6-3.5
			C351.3,224.1,340,222.4,340,222.4z"/>
		<g class="st2">
			<path class="st3" d="M289.9,266.7c0.1,0,0.2,0,0.3-0.1c1.2-0.3,2.3-0.7,3.2-1.3c0.7-0.5,1.3-1,1.8-1.5l0,0c1.1-1.4,1-2.8-0.3-3.7
				c-0.4-0.3-0.6-0.4-1-0.7c-1.4-1-3.9-1.6-6.9-1.6c-1.5,0-2.3,0-3.9,0c-3.4,0-6.1-0.7-7.9-1.8c-1.9-1.3-3-2-5.1-3.2
				c-2.9-1.7-4.8-4-4.3-6.1c0.5-1.9,1.3-2.7,3.5-4.2c2.8-1.8,8.3-3.3,15-4.5c17.7-3.2,35.9-7.8,53.9-9.3c0,0,12.2-0.5,12.5-2.3
				c0.3-1.7-5.4-1.5-5.4-1.5c-5.3,0-8,0-13.3,0c-2.5,0-4.8,0.4-6.7,1.1c-27.6,9.9-60.9,10.8-90,12c0,0-3.3-2.4-0.1-4.5
				c0.7-0.5,0.5-0.9-0.9-1.1c-2.1-0.3-5.6-0.1-12.6,1.9c-4.7,1.5-7.5,2.1-12.3,3.6c-17.7,0.9-35.3,1.8-53,2.8
				c0.1-2.4,1.5-3.3,3.1-5.6c0,0,2.2-1.1,7.2-2.4c8.6-1.5,12.7-2.3,19.1-4.3c0,0,14.3,1.2,13.6-2.1c0,0-0.2-1.2-5.4-1.6
				c-6.1-0.1-9.1-0.2-15.2-0.4c-9.2,4.9-20.2,6.4-30.2,8.3c0,0-20.6,3.7-26.2,7.3c-4.5-1.2-6.5-1.8-10.5-3c-2.3-0.7-2.9-1.8-1.6-3.1
				c1.4-1.4,3.4-3.5,4.5-5.6c0.6-1.1,1.3-2.4,1.9-3.7c0.4-0.9-0.1-2.1-3.5-2.1c-5.5,0-9.6,4-9.6,4c0,0-16.6,8.3-15.7,10.3
				c0.4,0.8,0.8,1.6,0.7,2.6c-0.2,1.3-0.1,1.9,0.6,3.4c0.6,1.2,0.8,2.7,1.2,4.5c1.1,5.2,0.9,8.4-1.8,14.6c-23.9-6.8-53.2-9.3-76,2.2
				c0,0-6.9,6.4,14,2.4c14.9-2.8,33.6-4.8,47.3,2.4c5,2.7,10.1,4.9,14.8,6.5c11.7,3.9,24.2,4.3,36.2,4.3c13.4-0.1,27.3-1.5,40.9-2.9
				c10.7-1.1,21.7-3.3,32.1-6.1c3.8-1.1,9-2.1,14.7-2.3c7.8-0.3,13.8,1.3,17.3,4c3.1,2.4,9.3,5.9,16.5,6.6c1.6,0.2,3,0.6,3.8,1.2
				c2.4,1.8,9,5.2,14,5c0.4,0,0.7-0.2,0.8-0.4c0.6-1.8,1.1-2.8,2.5-4.7c0.9-1.3,3-2.4,5.7-3.1c3.9-1,9.6-3.2,13.2-8l0,0
				C286.8,267.9,288.2,267.1,289.9,266.7z"/>
		</g>
		<path class="st4" d="M335.1,103.4c0,0,4.1,4.9,3.2,11.5c0,0-0.5,3.8,2.7,5.4c2.1,1,3.6,3.5,3.1,4.9c-1.9,5.6-2.1,8.8-16.2,6.7
			c0,0,15.4-25.5,1.9-32.7C329.9,99.2,332,99.7,335.1,103.4z"/>
		<path class="st5" d="M255.6,140.7c0,0-34,19.6-7.9,39.6c1.1,0.8,0.3,2.6-1.1,2.3c-11-2.8-30.5-8-43-13.1c-4-1.6-8.2-4.3-11.1-6.3
			c-2.2-1.5-3.2-4.2-2.7-6.8l4.8-24.3c-9.3,37.3-39.6,46.6-39.6,46.6c-1.9,13.8,4.9,26.9,4.9,26.9l18.6,26.3h13.9
			c7.7,0,7.3-4.7,7.3-4.7c-0.3-6.7-12.2-4.9-12.2-4.9l-10.6-14.9c-1.8-4.5,0-9.2,0-9.2l13.3-21.1l45.2,10.6v15.1
			c0,0,0.6,9.8,7.2,7.3c0,0,2.6-0.8,3.8-4c0,0,3.4-8.8,15.4-19.1C261.9,187,232.1,168.2,255.6,140.7z"/>
		<path class="st2" d="M137.5,129.4l-5.4,32.4c0,0-0.5,8.2-13.5,21.9l-5.2,6l-6,27c0,0-0.4,10.3,6.5,10.4c0,0,2.2-0.5,2.6-7
			c0,0-4.3,0.4-2.8-7.9l8.2-19.6c0,0,16.6-17,17.6-28.8C147.8,134.4,145.1,127.2,137.5,129.4z"/>
		<path class="st5" d="M306.3,95.6c0,0,2.1,0,4.3-2.4c0,0,7.8-10.5,15.2-10.6c0,0,0.6-0.3,0.7,0.8c0,0,0.9,10.4,1.9,12.3
			C328.5,95.6,324.3,94.1,306.3,95.6z"/>
		<path class="st2" d="M350,229.1c0,0-0.1,2.2-6.5,1.9c-6.3-0.3-11.8,0-11.8,0s-3.6-0.4-5.9-2.4c0,0-44.5-40.2-64.1-41.6
			c-2.9-0.2-3.1-2-5.1-4.1c-5.6-5.9-18-20.9-1.8-41.4c0,0-9.8,33.4,17.4,41.8c4.3,1.3,8.4,3.2,12.1,5.8
			c11.3,7.9,34.3,24.3,42.8,33.8c2.2,2.4,5.1,4,8.3,4.5c5.4,0.8,12.6,1.4,11.4-1.9C346.9,225.5,351,225.6,350,229.1z"/>
		<path class="st4" d="M339.7,121.3c0.2-0.5,1.6-1.2,3.9-0.4c0,0,1,1.5,0.9,3.4c0,0-0.5,0.4-0.8-0.6c0.7-0.5-1.6-3.1-3.2-1.9
			C340.1,122,339.4,121.8,339.7,121.3z"/>
		<path class="st2" d="M73.8,120.2c0,0-12.5-4.2-10,4.7c0,0,13.1,27.4,70,3.4c0,0-38.1,10.8-52.1,6.2S73.8,120.2,73.8,120.2z"/>
		<path class="st4" d="M325.8,82.9c0,0,0.5-0.2,0.7,1.2l0.8,7.8c0,0,0.2,3,0.7,3.4c0,0-4.4-0.8-8.7-0.6
			C319.4,94.7,318.8,87.6,325.8,82.9z"/>
		<path class="st4" d="M303.7,164.6c0,0,1,19.4,8.5,29.3c0,0,10.3,18.4,15,24.2c0,0,7.7,6.6,12.2,5.1c0,0,5.2,0.6,6.6,2.2
			c0,0-5.6-0.9-8.9,0.4c0,0-11-2.5-14.6-11.4c0,0-24.4-20.4-25-52.9C297.4,161.5,300.8,145.9,303.7,164.6z"/>
		<path class="st2" d="M338.3,133.2c-2.2,1-7.6,2-12.6,2.7c-4.7,0.7-9,2.8-12.3,6.3c-1.6,1.6-3.4,3.7-5.3,6.2
			c0.5-0.9,4.2-8.7-6.2-16.4c0,0-0.1-0.1-0.1-0.1c-0.8-0.6-1.6-1.2-2.6-1.7c0,0,0,0,0,0h0c-5.8-4.2-8.4-8.5-8.7-8.9
			c10.6,6.9,17.7,9.9,21.7,11.1c1.9,0.6,4,0.9,6,0.9L338.3,133.2z"/>
		<path class="st4" d="M226,106.7c0,0,43.9,30,58.9,9.2C284.9,115.9,272.1,157.9,226,106.7z"/>
		<path class="st4" d="M189.9,124.3c0,0-2.3,39.8-35.2,49.5C154.7,173.8,186,141.2,189.9,124.3z"/>
		<path class="st4" d="M252.3,141.5c0,0-30.6,18.9-6.6,38.8C245.7,180.3,207.3,160.9,252.3,141.5z"/>
	</g>
	<path class="st4" d="M297.1,84.6c-1.3,3-4.4,11.1-4.6,20c0,0-2.4,3.9,0,6.4c0,0,19.3-8.3,23.4-5.9c0,0-4.2-13.5-17-21.1
		C298.3,83.6,297.4,83.9,297.1,84.6z"/>
	<path class="st2" d="M297.7,84.7c0,0-4.2,11.2-4.6,19.7c0,0-1.9,3.7-0.4,5.8c0,0,5.4-2,10.2-3.4
		C302.8,106.8,296.4,102.7,297.7,84.7z"/>
</g>
</svg>
