<?xml version="1.0" encoding="utf-8"?>
<!-- Generator: Adobe Illustrator 27.6.1, SVG Export Plug-In . SVG Version: 6.00 Build 0)  -->
<svg version="1.1" id="Layer_1" xmlns="http://www.w3.org/2000/svg" xmlns:xlink="http://www.w3.org/1999/xlink" x="0px" y="0px"
	 viewBox="0 0 900 200" style="enable-background:new 0 0 900 200;" xml:space="preserve">
<style type="text/css">
	.st0{fill:#250835;}
	.st1{fill:#4A4063;}
</style>
<rect class="st0" width="900" height="200.3"/>
<path class="st1" d="M898.6,59.7c-5.3-6.2-11.3-11.7-17.7-16.6c-9-6.8-18.9-12.1-29.6-15.9c-8.1-2.9-16.4-5-24.9-6.3
	c-4.4-0.7-8.8-1.2-13.2-1.4c-0.2,0-0.4,0.1-0.6-0.1c0,0,0.1-0.2,0.2-0.3c-8.7,0-17.3,0-26,0c-0.2,0.6-0.7,0.4-1.1,0.4
	c-6.8,0.4-13.5,1.2-20.2,2.2c-8.3,1.2-16.5,2.8-24.7,4.7c-9.9,2.2-19.6,4.9-29.3,7.8c-17.7,5.3-35,11.7-52.1,18.5
	c-10,4-19.8,8.4-29.7,12.6c-8.6,3.6-17.3,6.9-26.1,10.1c-12,4.3-24.2,8.2-36.5,11.8c-11.6,3.4-23.3,6.4-35.1,9.2
	c-10,2.3-20,4.4-30.1,6.1c-8.5,1.5-17,2.8-25.6,3.8c-6.2,0.8-12.4,1.4-18.6,1.9c-4.8,0.4-9.5,0.7-14.3,0.9
	c-8.8,0.5-17.5,0.5-26.3,0.4c-4.2-0.1-8.3-0.3-12.5-0.6c-3.7-0.2-7.3-0.5-11-0.9c-15.5-1.6-30.8-4.4-45.7-9.1
	c-8.6-2.7-16.9-6.1-24.9-10.1c-7.1-3.6-13.9-7.9-20.4-12.5c-5.7-4.1-11.8-7.6-18-10.9c-8.2-4.2-16.6-7.8-25.3-10.8
	c-9.7-3.3-19.5-5.9-29.5-7.8c-7.7-1.5-15.4-2.7-23.1-3.4c-6-0.6-12-1.1-18-1.3c-8.5-0.4-17-0.3-25.5-0.2c-6.8,0.1-13.6,0.6-20.4,1.2
	c-6.9,0.6-13.8,1.3-20.7,2.2c-6.5,0.8-13,1.8-19.4,2.9c-12.6,2.2-25,4.8-37.4,7.9C50,59.9,34.9,64.4,20.1,69.7
	c-6.2,2.2-12.4,4.5-18.5,7c-0.4,0.2-0.8,0.3-1.2,0.4c0,41.1,0,82.1,0,123.2c299.8,0,599.7,0,899.5,0c0-0.6,0.1-1.2,0.1-1.8
	c0-45,0-90,0-135C900,62,899.5,60.8,898.6,59.7z"/>
</svg>
