<?xml version="1.0" encoding="utf-8"?>
<!-- Generator: Adobe Illustrator 27.6.1, SVG Export Plug-In . SVG Version: 6.00 Build 0)  -->
<svg version="1.1" id="Layer_1" xmlns="http://www.w3.org/2000/svg" xmlns:xlink="http://www.w3.org/1999/xlink" x="0px" y="0px"
	 viewBox="0 0 900 300" style="enable-background:new 0 0 900 300;" xml:space="preserve">
<style type="text/css">
	.st0{fill:#4A4063;}
	.st1{fill:#746F9B;}
</style>
<rect class="st0" width="900" height="300.1"/>
<g>
	<path class="st1" d="M899.8,64.4c0-1.2,0.6-2.8-0.5-3.4c-1.1-0.6-2.1,0.9-3,1.6c-36.6,26.5-74.9,50.4-114.6,72.1
		c-32,17.4-64.7,33.2-98.6,46.6c-33.9,13.5-68.5,24.5-104.4,31.3c-22,4.1-44.3,6.6-66.7,6c-28-0.7-55-5.7-80.3-18.4
		c-24.3-12.3-43.5-30.2-58.1-53c-11.9-18.6-25.4-35.9-41.6-51c-28.2-26.4-61.3-43.8-99-52.2c-12.3-2.8-24.8-4.5-37.4-5.3
		c-0.8,0-1.5-0.3-2.3-0.4c-10.1,0-20.2,0-30.3,0c-6.3,0.6-12.6,1.2-18.9,1.9c-25.9,2.9-51.1,8.9-75.7,17.3
		C44.7,65.5,21.8,75.6,0.1,88.3c0,70.6,0,141.2,0,211.8c140,0,280,0,420,0c158,0,316,0,474.1,0c6.6,0,5.7,0,5.7-5.6
		C899.9,217.8,899.9,141.1,899.8,64.4z"/>
</g>
<path d="M0.1,38.2"/>
</svg>
