<?xml version="1.0" encoding="utf-8"?>
<!-- Generator: Adobe Illustrator 27.6.1, SVG Export Plug-In . SVG Version: 6.00 Build 0)  -->
<svg version="1.1" id="Layer_1" xmlns="http://www.w3.org/2000/svg" xmlns:xlink="http://www.w3.org/1999/xlink" x="0px" y="0px"
	 viewBox="0 0 864 864" style="enable-background:new 0 0 864 864;" xml:space="preserve">
<style type="text/css">
	.st0{fill:#50276F;}
</style>
<g id="f1QhjX.tif">
	<g>
		<path class="st0" d="M-1336.9,860.3c0-92.2,0-184.4,0-276.6c17.3-9.2,34.6-18.5,52-27.7c63.3-33.3,128.5-62.4,196.1-85.9
			c120.6-41.8,245-63.7,372.4-69.2c38.1-1.7,76.2-1.7,114.4-0.5c44.3,1.4,88.4,4.5,132.5,9.1c50.2,5.2,100.1,12.5,149.7,21.5
			c83.5,15.1,166.1,34.1,247.3,58.4C12.3,514.9,98,535.1,186,545c39.2,4.4,78.6,7.4,118,8.3c43.1,1,86.3,0.4,129.3-2.6
			c35.4-2.4,70.7-5.7,105.8-10.5c56.5-7.6,112.4-18.2,167.8-31.3c102.1-24.3,201.5-57,299-95.7c62.6-24.8,123.4-53.6,185-80.7
			c89.8-39.6,181.8-72.8,277.7-94.2c40.8-9.1,82-16.1,123.7-19.5c10.6-0.9,21.2-1.7,31.8-2.6c23.3,0,46.7,0,70,0
			c1.2,0.2,2.3,0.6,3.5,0.6c22.3,0.9,44.5,3.5,66.5,7.1c60.5,9.8,118,28.9,171.9,58.1c66.9,36.2,123.5,85,172.6,142.7
			c2.6,3.1,3.8,6.3,3.8,10.4c-0.1,156.8-0.1,313.5-0.1,470.3c0,7,0,7.1-7.3,7.1c-38.3-0.2-76.6,0.2-114.9-0.8
			c-43.6-1.2-87.3-1.4-130.9-2.1c-43.5-0.7-86.9-1.3-130.4-2c-43.1-0.7-86.3-1.3-129.4-2c-43.6-0.7-87.3-1.3-130.9-2
			c-43.5-0.7-86.9-1.3-130.4-2c-43.3-0.7-86.6-1.3-129.9-2c-43.3-0.7-86.6-1.3-129.9-2c-43.3-0.7-86.6-1.3-129.9-2
			c-43.6-0.7-87.3-1.3-130.9-2c-43.3-0.7-86.6-1.3-129.9-2c-43.5-0.7-86.9-1.3-130.4-2c-43.1-0.7-86.3-1.3-129.4-2
			c-43.6-0.7-87.3-1.3-130.9-2c-43.5-0.7-86.9-1.3-130.4-2c-43.3-0.7-86.6-1.3-129.9-2s-86.6-1.3-129.9-2
			c-43.3-0.7-86.6-1.3-129.9-2c-43.6-0.7-87.3-1.3-130.9-2c-43.3-0.7-86.6-1.3-129.9-2c-43.5-0.7-86.9-1.3-130.4-2
			c-43.1-0.7-86.3-1.3-129.4-2c-43.6-0.7-87.3-1.3-130.9-2c-43.5-0.7-86.9-1.3-130.4-2c-42.8-0.7-85.6-1.3-128.4-2
			c-47.1-0.7-94.3-1.4-141.4-2.1C-1295.6,861.4-1316.3,861.9-1336.9,860.3z"/>
	</g>
</g>
</svg>
