<?xml version="1.0" encoding="utf-8"?>
<!-- Generator: Adobe Illustrator 27.6.1, SVG Export Plug-In . SVG Version: 6.00 Build 0)  -->
<svg version="1.1" id="Layer_1" xmlns="http://www.w3.org/2000/svg" xmlns:xlink="http://www.w3.org/1999/xlink" x="0px" y="0px"
	 viewBox="0 0 900 200" style="enable-background:new 0 0 900 200;" xml:space="preserve">
<style type="text/css">
	.st0{fill:#4F1271;}
	.st1{fill:#250835;}
</style>
<rect class="st0" width="900" height="200"/>
<g id="_x31_bnXdn.tif">
	<g>
		<path class="st1" d="M900.8,137.3c0,20.9,0,62.7,0,62.7H0.5c0,0,0-95.6,0-143.4C1.9,56.8,2.4,58,3.1,59
			c4.5,6.6,9.5,12.8,15.1,18.5c12.8,13.1,27.7,23.3,44,31.6c26.5,13.4,54.8,21,84,25.4c9.7,1.5,19.4,2.5,29.2,3.3
			c8.2,0.7,16.4,1.1,24.7,1.3c10.1,0.2,20.1,0.2,30.2-0.3c8.9-0.4,17.8-0.9,26.7-1.6c13.2-1.1,26.4-2.7,39.5-4.7
			c22.1-3.4,43.8-7.9,65.4-13.6c30.8-8.2,60.9-18.5,90.1-31.4c24.5-10.8,49.4-20.9,74.6-29.8c45.5-16,91.8-29,139.6-35.7
			c14.8-2.1,29.6-3.7,44.5-4.1c0.9,0,1.7,0,2.6-0.3c7.3,0,14.6,0,21.9,0c0.8,0.1,1.5,0.3,2.3,0.3c11,0.2,22,1.4,32.8,3.2
			c17.5,2.8,34.3,7.6,50.4,15.1c23.7,11.1,43.1,27.3,57.6,49.2C888.9,101.2,896.1,118.7,900.8,137.3z"/>
	</g>
</g>
</svg>
